<?xml version="1.0" encoding="UTF-8" standalone="no"?>
<!DOCTYPE svg PUBLIC "-//W3C//DTD SVG 1.1//EN"
 "http://www.w3.org/Graphics/SVG/1.1/DTD/svg11.dtd">
<!-- Generated by graphviz version 2.43.0 (0)
 -->
<!-- Title: wordcount02 Pages: 1 -->
<svg width="100%" height="100%" xmlns="http://www.w3.org/2000/svg" xmlns:xlink="http://www.w3.org/1999/xlink">
<script type="text/ecmascript"><![CDATA[
/**
 *  SVGPan library 1.2.2
 * ======================
 *
 * Given an unique existing element with id "viewport" (or when missing, the
 * first g-element), including the library into any SVG adds the following
 * capabilities:
 *
 *  - Mouse panning
 *  - Mouse zooming (using the wheel)
 *  - Object dragging
 *
 * You can configure the behaviour of the pan/zoom/drag with the variables
 * listed in the CONFIGURATION section of this file.
 *
 * Known issues:
 *
 *  - Zooming (while panning) on Safari has still some issues
 *
 * Releases:
 *
 * 1.2.2, Tue Aug 30 17:21:56 CEST 2011, Andrea Leofreddi
 *	- Fixed viewBox on root tag (#7)
 *	- Improved zoom speed (#2)
 *
 * 1.2.1, Mon Jul  4 00:33:18 CEST 2011, Andrea Leofreddi
 *	- Fixed a regression with mouse wheel (now working on Firefox 5)
 *	- Working with viewBox attribute (#4)
 *	- Added "use strict;" and fixed resulting warnings (#5)
 *	- Added configuration variables, dragging is disabled by default (#3)
 *
 * 1.2, Sat Mar 20 08:42:50 GMT 2010, Zeng Xiaohui
 *	Fixed a bug with browser mouse handler interaction
 *
 * 1.1, Wed Feb  3 17:39:33 GMT 2010, Zeng Xiaohui
 *	Updated the zoom code to support the mouse wheel on Safari/Chrome
 *
 * 1.0, Andrea Leofreddi
 *	First release
 *
 * This code is licensed under the following BSD license:
 *
 * Copyright 2009-2017 Andrea Leofreddi <a.leofreddi@vleo.net>. All rights reserved.
 *
 * Redistribution and use in source and binary forms, with or without modification, are
 * permitted provided that the following conditions are met:
 *
 *    1. Redistributions of source code must retain the above copyright
 *       notice, this list of conditions and the following disclaimer.
 *    2. Redistributions in binary form must reproduce the above copyright
 *       notice, this list of conditions and the following disclaimer in the
 *       documentation and/or other materials provided with the distribution.
 *    3. Neither the name of the copyright holder nor the names of its
 *       contributors may be used to endorse or promote products derived from
 *       this software without specific prior written permission.
 *
 * THIS SOFTWARE IS PROVIDED BY COPYRIGHT HOLDERS AND CONTRIBUTORS ''AS IS'' AND ANY EXPRESS
 * OR IMPLIED WARRANTIES, INCLUDING, BUT NOT LIMITED TO, THE IMPLIED WARRANTIES OF MERCHANTABILITY
 * AND FITNESS FOR A PARTICULAR PURPOSE ARE DISCLAIMED. IN NO EVENT SHALL COPYRIGHT HOLDERS OR
 * CONTRIBUTORS BE LIABLE FOR ANY DIRECT, INDIRECT, INCIDENTAL, SPECIAL, EXEMPLARY, OR
 * CONSEQUENTIAL DAMAGES (INCLUDING, BUT NOT LIMITED TO, PROCUREMENT OF SUBSTITUTE GOODS OR
 * SERVICES; LOSS OF USE, DATA, OR PROFITS; OR BUSINESS INTERRUPTION) HOWEVER CAUSED AND ON
 * ANY THEORY OF LIABILITY, WHETHER IN CONTRACT, STRICT LIABILITY, OR TORT (INCLUDING
 * NEGLIGENCE OR OTHERWISE) ARISING IN ANY WAY OUT OF THE USE OF THIS SOFTWARE, EVEN IF
 * ADVISED OF THE POSSIBILITY OF SUCH DAMAGE.
 *
 * The views and conclusions contained in the software and documentation are those of the
 * authors and should not be interpreted as representing official policies, either expressed
 * or implied, of Andrea Leofreddi.
 */

"use strict";

/// CONFIGURATION
/// ====>

var enablePan = 1; // 1 or 0: enable or disable panning (default enabled)
var enableZoom = 1; // 1 or 0: enable or disable zooming (default enabled)
var enableDrag = 0; // 1 or 0: enable or disable dragging (default disabled)
var zoomScale = 0.2; // Zoom sensitivity

/// <====
/// END OF CONFIGURATION

var root = document.documentElement;

var state = 'none', svgRoot = null, stateTarget, stateOrigin, stateTf;

setupHandlers(root);

/**
 * Register handlers
 */
function setupHandlers(root){
	setAttributes(root, {
		"onmouseup" : "handleMouseUp(evt)",
		"onmousedown" : "handleMouseDown(evt)",
		"onmousemove" : "handleMouseMove(evt)",
		//"onmouseout" : "handleMouseUp(evt)", // Decomment this to stop the pan functionality when dragging out of the SVG element
	});

	if(navigator.userAgent.toLowerCase().indexOf('webkit') >= 0)
		window.addEventListener('mousewheel', handleMouseWheel, false); // Chrome/Safari
	else
		window.addEventListener('DOMMouseScroll', handleMouseWheel, false); // Others
}

/**
 * Retrieves the root element for SVG manipulation. The element is then cached into the svgRoot global variable.
 */
function getRoot(root) {
	if(svgRoot == null) {
		var r = root.getElementById("viewport") ? root.getElementById("viewport") : root.documentElement, t = r;

		while(t != root) {
			if(t.getAttribute("viewBox")) {
				setCTM(r, t.getCTM());

				t.removeAttribute("viewBox");
			}

			t = t.parentNode;
		}

		svgRoot = r;
	}

	return svgRoot;
}

/**
 * Instance an SVGPoint object with given event coordinates.
 */
function getEventPoint(evt) {
	var p = root.createSVGPoint();

	p.x = evt.clientX;
	p.y = evt.clientY;

	return p;
}

/**
 * Sets the current transform matrix of an element.
 */
function setCTM(element, matrix) {
	var s = "matrix(" + matrix.a + "," + matrix.b + "," + matrix.c + "," + matrix.d + "," + matrix.e + "," + matrix.f + ")";

	element.setAttribute("transform", s);
}

/**
 * Dumps a matrix to a string (useful for debug).
 */
function dumpMatrix(matrix) {
	var s = "[ " + matrix.a + ", " + matrix.c + ", " + matrix.e + "\n  " + matrix.b + ", " + matrix.d + ", " + matrix.f + "\n  0, 0, 1 ]";

	return s;
}

/**
 * Sets attributes of an element.
 */
function setAttributes(element, attributes){
	for (var i in attributes)
		element.setAttributeNS(null, i, attributes[i]);
}

/**
 * Handle mouse wheel event.
 */
function handleMouseWheel(evt) {
	if(!enableZoom)
		return;

	if(evt.preventDefault)
		evt.preventDefault();

	evt.returnValue = false;

	var svgDoc = evt.target.ownerDocument;

	var delta;

	if(evt.wheelDelta)
		delta = evt.wheelDelta / 360; // Chrome/Safari
	else
		delta = evt.detail / -9; // Mozilla

	var z = Math.pow(1 + zoomScale, delta);

	var g = getRoot(svgDoc);
	
	var p = getEventPoint(evt);

	p = p.matrixTransform(g.getCTM().inverse());

	// Compute new scale matrix in current mouse position
	var k = root.createSVGMatrix().translate(p.x, p.y).scale(z).translate(-p.x, -p.y);

        setCTM(g, g.getCTM().multiply(k));

	if(typeof(stateTf) == "undefined")
		stateTf = g.getCTM().inverse();

	stateTf = stateTf.multiply(k.inverse());
}

/**
 * Handle mouse move event.
 */
function handleMouseMove(evt) {
	if(evt.preventDefault)
		evt.preventDefault();

	evt.returnValue = false;

	var svgDoc = evt.target.ownerDocument;

	var g = getRoot(svgDoc);

	if(state == 'pan' && enablePan) {
		// Pan mode
		var p = getEventPoint(evt).matrixTransform(stateTf);

		setCTM(g, stateTf.inverse().translate(p.x - stateOrigin.x, p.y - stateOrigin.y));
	} else if(state == 'drag' && enableDrag) {
		// Drag mode
		var p = getEventPoint(evt).matrixTransform(g.getCTM().inverse());

		setCTM(stateTarget, root.createSVGMatrix().translate(p.x - stateOrigin.x, p.y - stateOrigin.y).multiply(g.getCTM().inverse()).multiply(stateTarget.getCTM()));

		stateOrigin = p;
	}
}

/**
 * Handle click event.
 */
function handleMouseDown(evt) {
	if(evt.preventDefault)
		evt.preventDefault();

	evt.returnValue = false;

	var svgDoc = evt.target.ownerDocument;

	var g = getRoot(svgDoc);

	if(
		evt.target.tagName == "svg"
		|| !enableDrag // Pan anyway when drag is disabled and the user clicked on an element
	) {
		// Pan mode
		state = 'pan';

		stateTf = g.getCTM().inverse();

		stateOrigin = getEventPoint(evt).matrixTransform(stateTf);
	} else {
		// Drag mode
		state = 'drag';

		stateTarget = evt.target;

		stateTf = g.getCTM().inverse();

		stateOrigin = getEventPoint(evt).matrixTransform(stateTf);
	}
}

/**
 * Handle mouse button release event.
 */
function handleMouseUp(evt) {
	if(evt.preventDefault)
		evt.preventDefault();

	evt.returnValue = false;

	var svgDoc = evt.target.ownerDocument;

	if(state == 'pan' || state == 'drag') {
		// Quit pan mode
		state = '';
	}
}
]]></script><g id="viewport" transform="scale(0.5,0.5) translate(0,0)"><g id="graph0" class="graph" transform="scale(1 1) rotate(0) translate(4 1234)">
<title>wordcount02</title>
<polygon fill="white" stroke="transparent" points="-4,4 -4,-1234 1239,-1234 1239,4 -4,4"/>
<g id="clust1" class="cluster">
<title>cluster_L</title>
<polygon fill="none" stroke="black" points="8,-1089 8,-1222 582,-1222 582,-1089 8,-1089"/>
</g>
<!-- File: wordcount02 -->
<g id="node1" class="node">
<title>File: wordcount02</title>
<g id="a_node1"><a xlink:title="wordcount02">
<polygon fill="#f8f8f8" stroke="black" points="574,-1214 16,-1214 16,-1097 574,-1097 574,-1214"/>
<text text-anchor="start" x="24" y="-1197.2" font-family="Times,serif" font-size="16.00">File: wordcount02</text>
<text text-anchor="start" x="24" y="-1179.2" font-family="Times,serif" font-size="16.00">Type: inuse_space</text>
<text text-anchor="start" x="24" y="-1161.2" font-family="Times,serif" font-size="16.00">Time: Mar 13, 2023 at 9:35am (UTC)</text>
<text text-anchor="start" x="24" y="-1143.2" font-family="Times,serif" font-size="16.00">Showing nodes accounting for 650.50kB, 100% of 650.50kB total</text>
<text text-anchor="start" x="24" y="-1106.2" font-family="Times,serif" font-size="16.00">See https://git.io/JfYMW for how to read the graph</text>
</a>
</g>
</g>
<!-- N1 -->
<g id="node1" class="node">
<title>N1</title>
<g id="a_node1"><a xlink:title="main.readbyte (633.23kB)">
<polygon fill="#edd5d5" stroke="#b20100" points="771.5,-936 524.5,-936 524.5,-850 771.5,-850 771.5,-936"/>
<text text-anchor="middle" x="648" y="-912.8" font-family="Times,serif" font-size="24.00">main</text>
<text text-anchor="middle" x="648" y="-886.8" font-family="Times,serif" font-size="24.00">readbyte</text>
<text text-anchor="middle" x="648" y="-860.8" font-family="Times,serif" font-size="24.00">633.23kB (97.35%)</text>
</a>
</g>
</g>
<!-- NN1_0 -->
<g id="NN1_0" class="node">
<title>NN1_0</title>
<g id="a_NN1_0"><a xlink:title="633.23kB">
<polygon fill="#f8f8f8" stroke="black" points="675,-796.5 625,-796.5 621,-792.5 621,-760.5 671,-760.5 675,-764.5 675,-796.5"/>
<polyline fill="none" stroke="black" points="671,-792.5 621,-792.5 "/>
<polyline fill="none" stroke="black" points="671,-792.5 671,-760.5 "/>
<polyline fill="none" stroke="black" points="671,-792.5 675,-796.5 "/>
<text text-anchor="middle" x="648" y="-776.6" font-family="Times,serif" font-size="8.00">16B</text>
</a>
</g>
</g>
<!-- N1&#45;&gt;NN1_0 -->
<g id="edge1" class="edge">
<title>N1&#45;&gt;NN1_0</title>
<g id="a_edge1"><a xlink:title="633.23kB">
<path fill="none" stroke="black" d="M648,-849.79C648,-835.37 648,-819.64 648,-806.72"/>
<polygon fill="black" stroke="black" points="651.5,-806.62 648,-796.62 644.5,-806.62 651.5,-806.62"/>
</a>
</g>
<g id="a_edge1&#45;label"><a xlink:title="633.23kB">
<text text-anchor="middle" x="684.5" y="-820.8" font-family="Times,serif" font-size="14.00"> 633.23kB</text>
</a>
</g>
</g>
<!-- N2 -->
<g id="node2" class="node">
<title>N2</title>
<g id="a_node2"><a xlink:title="runtime.main (637.25kB)">
<polygon fill="#edd5d5" stroke="#b20100" points="704,-1173.5 592,-1173.5 592,-1137.5 704,-1137.5 704,-1173.5"/>
<text text-anchor="middle" x="648" y="-1162.6" font-family="Times,serif" font-size="8.00">runtime</text>
<text text-anchor="middle" x="648" y="-1153.6" font-family="Times,serif" font-size="8.00">main</text>
<text text-anchor="middle" x="648" y="-1144.6" font-family="Times,serif" font-size="8.00">0 of 637.25kB (97.96%)</text>
</a>
</g>
</g>
<!-- N11 -->
<g id="node11" class="node">
<title>N11</title>
<g id="a_node11"><a xlink:title="main.main (633.23kB)">
<polygon fill="#edd5d5" stroke="#b20100" points="704,-1042 592,-1042 592,-1006 704,-1006 704,-1042"/>
<text text-anchor="middle" x="648" y="-1031.1" font-family="Times,serif" font-size="8.00">main</text>
<text text-anchor="middle" x="648" y="-1022.1" font-family="Times,serif" font-size="8.00">main</text>
<text text-anchor="middle" x="648" y="-1013.1" font-family="Times,serif" font-size="8.00">0 of 633.23kB (97.35%)</text>
</a>
</g>
</g>
<!-- N2&#45;&gt;N11 -->
<g id="edge6" class="edge">
<title>N2&#45;&gt;N11</title>
<g id="a_edge6"><a xlink:title="runtime.main &#45;&gt; main.main (633.23kB)">
<path fill="none" stroke="#b20100" stroke-width="5" d="M648,-1137.3C648,-1115.63 648,-1078.12 648,-1052.46"/>
<polygon fill="#b20100" stroke="#b20100" stroke-width="5" points="652.38,-1052.27 648,-1042.27 643.63,-1052.27 652.38,-1052.27"/>
</a>
</g>
<g id="a_edge6&#45;label"><a xlink:title="runtime.main &#45;&gt; main.main (633.23kB)">
<text text-anchor="middle" x="684.5" y="-1067.8" font-family="Times,serif" font-size="14.00"> 633.23kB</text>
</a>
</g>
</g>
<!-- N19 -->
<g id="node19" class="node">
<title>N19</title>
<g id="a_node19"><a xlink:title="runtime.doInit (4.02kB)">
<polygon fill="#edecec" stroke="#b2b1ac" points="837,-1042 741,-1042 741,-1006 837,-1006 837,-1042"/>
<text text-anchor="middle" x="789" y="-1031.1" font-family="Times,serif" font-size="8.00">runtime</text>
<text text-anchor="middle" x="789" y="-1022.1" font-family="Times,serif" font-size="8.00">doInit</text>
<text text-anchor="middle" x="789" y="-1013.1" font-family="Times,serif" font-size="8.00">0 of 4.02kB (0.62%)</text>
</a>
</g>
</g>
<!-- N2&#45;&gt;N19 -->
<g id="edge29" class="edge">
<title>N2&#45;&gt;N19</title>
<g id="a_edge29"><a xlink:title="runtime.main &#45;&gt; runtime.doInit (4.02kB)">
<path fill="none" stroke="#b2b1ac" d="M666.72,-1137.3C691.37,-1114.66 734.85,-1074.74 762.77,-1049.09"/>
<polygon fill="#b2b1ac" stroke="#b2b1ac" points="765.2,-1051.61 770.2,-1042.27 760.47,-1046.45 765.2,-1051.61"/>
</a>
</g>
<g id="a_edge29&#45;label"><a xlink:title="runtime.main &#45;&gt; runtime.doInit (4.02kB)">
<text text-anchor="middle" x="771.5" y="-1067.8" font-family="Times,serif" font-size="14.00"> 4.02kB</text>
</a>
</g>
</g>
<!-- N3 -->
<g id="node3" class="node">
<title>N3</title>
<g id="a_node3"><a xlink:title="runtime.allocm (9.04kB)">
<polygon fill="#edeceb" stroke="#b2afa6" points="1064,-327.5 972,-327.5 972,-286.5 1064,-286.5 1064,-327.5"/>
<text text-anchor="middle" x="1018" y="-315.5" font-family="Times,serif" font-size="10.00">runtime</text>
<text text-anchor="middle" x="1018" y="-304.5" font-family="Times,serif" font-size="10.00">allocm</text>
<text text-anchor="middle" x="1018" y="-293.5" font-family="Times,serif" font-size="10.00">9.04kB (1.39%)</text>
</a>
</g>
</g>
<!-- NN3_0 -->
<g id="NN3_0" class="node">
<title>NN3_0</title>
<g id="a_NN3_0"><a xlink:title="9.04kB">
<polygon fill="#f8f8f8" stroke="black" points="1045,-230 995,-230 991,-226 991,-194 1041,-194 1045,-198 1045,-230"/>
<polyline fill="none" stroke="black" points="1041,-226 991,-226 "/>
<polyline fill="none" stroke="black" points="1041,-226 1041,-194 "/>
<polyline fill="none" stroke="black" points="1041,-226 1045,-230 "/>
<text text-anchor="middle" x="1018" y="-210.1" font-family="Times,serif" font-size="8.00">1kB</text>
</a>
</g>
</g>
<!-- N3&#45;&gt;NN3_0 -->
<g id="edge2" class="edge">
<title>N3&#45;&gt;NN3_0</title>
<g id="a_edge2"><a xlink:title="9.04kB">
<path fill="none" stroke="black" d="M1018,-286.28C1018,-272.89 1018,-255.01 1018,-240.27"/>
<polygon fill="black" stroke="black" points="1021.5,-240.19 1018,-230.19 1014.5,-240.19 1021.5,-240.19"/>
</a>
</g>
<g id="a_edge2&#45;label"><a xlink:title="9.04kB">
<text text-anchor="middle" x="1045.5" y="-255.8" font-family="Times,serif" font-size="14.00"> 9.04kB</text>
</a>
</g>
</g>
<!-- N4 -->
<g id="node4" class="node">
<title>N4</title>
<g id="a_node4"><a xlink:title="runtime.schedule (9.04kB)">
<polygon fill="#edeceb" stroke="#b2afa6" points="1066,-796.5 970,-796.5 970,-760.5 1066,-760.5 1066,-796.5"/>
<text text-anchor="middle" x="1018" y="-785.6" font-family="Times,serif" font-size="8.00">runtime</text>
<text text-anchor="middle" x="1018" y="-776.6" font-family="Times,serif" font-size="8.00">schedule</text>
<text text-anchor="middle" x="1018" y="-767.6" font-family="Times,serif" font-size="8.00">0 of 9.04kB (1.39%)</text>
</a>
</g>
</g>
<!-- N26 -->
<g id="node26" class="node">
<title>N26</title>
<g id="a_node26"><a xlink:title="runtime.resetspinning (9.04kB)">
<polygon fill="#edeceb" stroke="#b2afa6" points="1066,-692 970,-692 970,-656 1066,-656 1066,-692"/>
<text text-anchor="middle" x="1018" y="-681.1" font-family="Times,serif" font-size="8.00">runtime</text>
<text text-anchor="middle" x="1018" y="-672.1" font-family="Times,serif" font-size="8.00">resetspinning</text>
<text text-anchor="middle" x="1018" y="-663.1" font-family="Times,serif" font-size="8.00">0 of 9.04kB (1.39%)</text>
</a>
</g>
</g>
<!-- N4&#45;&gt;N26 -->
<g id="edge9" class="edge">
<title>N4&#45;&gt;N26</title>
<g id="a_edge9"><a xlink:title="runtime.schedule &#45;&gt; runtime.resetspinning (9.04kB)">
<path fill="none" stroke="#b2afa6" d="M1018,-760.11C1018,-744.26 1018,-720.59 1018,-702.23"/>
<polygon fill="#b2afa6" stroke="#b2afa6" points="1021.5,-702.13 1018,-692.13 1014.5,-702.13 1021.5,-702.13"/>
</a>
</g>
<g id="a_edge9&#45;label"><a xlink:title="runtime.schedule &#45;&gt; runtime.resetspinning (9.04kB)">
<text text-anchor="middle" x="1045.5" y="-721.3" font-family="Times,serif" font-size="14.00"> 9.04kB</text>
</a>
</g>
</g>
<!-- N5 -->
<g id="node5" class="node">
<title>N5</title>
<g id="a_node5"><a xlink:title="runtime.malg (4.21kB)">
<polygon fill="#edecec" stroke="#b2b1ac" points="1226,-799 1134,-799 1134,-758 1226,-758 1226,-799"/>
<text text-anchor="middle" x="1180" y="-787" font-family="Times,serif" font-size="10.00">runtime</text>
<text text-anchor="middle" x="1180" y="-776" font-family="Times,serif" font-size="10.00">malg</text>
<text text-anchor="middle" x="1180" y="-765" font-family="Times,serif" font-size="10.00">4.21kB (0.65%)</text>
</a>
</g>
</g>
<!-- NN5_0 -->
<g id="NN5_0" class="node">
<title>NN5_0</title>
<g id="a_NN5_0"><a xlink:title="4.21kB">
<polygon fill="#f8f8f8" stroke="black" points="1207,-692 1157,-692 1153,-688 1153,-656 1203,-656 1207,-660 1207,-692"/>
<polyline fill="none" stroke="black" points="1203,-688 1153,-688 "/>
<polyline fill="none" stroke="black" points="1203,-688 1203,-656 "/>
<polyline fill="none" stroke="black" points="1203,-688 1207,-692 "/>
<text text-anchor="middle" x="1180" y="-672.1" font-family="Times,serif" font-size="8.00">416B</text>
</a>
</g>
</g>
<!-- N5&#45;&gt;NN5_0 -->
<g id="edge3" class="edge">
<title>N5&#45;&gt;NN5_0</title>
<g id="a_edge3"><a xlink:title="4.21kB">
<path fill="none" stroke="black" d="M1180,-757.74C1180,-742.03 1180,-719.89 1180,-702.46"/>
<polygon fill="black" stroke="black" points="1183.5,-702.32 1180,-692.32 1176.5,-702.32 1183.5,-702.32"/>
</a>
</g>
<g id="a_edge3&#45;label"><a xlink:title="4.21kB">
<text text-anchor="middle" x="1207.5" y="-721.3" font-family="Times,serif" font-size="14.00"> 4.21kB</text>
</a>
</g>
</g>
<!-- N6 -->
<g id="node6" class="node">
<title>N6</title>
<g id="a_node6"><a xlink:title="regexp/syntax.(*parser).maybeConcat (4.02kB)">
<polygon fill="#edecec" stroke="#b2b1ac" points="884,-139 792,-139 792,-87 884,-87 884,-139"/>
<text text-anchor="middle" x="838" y="-127" font-family="Times,serif" font-size="10.00">syntax</text>
<text text-anchor="middle" x="838" y="-116" font-family="Times,serif" font-size="10.00">(*parser)</text>
<text text-anchor="middle" x="838" y="-105" font-family="Times,serif" font-size="10.00">maybeConcat</text>
<text text-anchor="middle" x="838" y="-94" font-family="Times,serif" font-size="10.00">4.02kB (0.62%)</text>
</a>
</g>
</g>
<!-- NN6_0 -->
<g id="NN6_0" class="node">
<title>NN6_0</title>
<g id="a_NN6_0"><a xlink:title="4.02kB">
<polygon fill="#f8f8f8" stroke="black" points="865,-36 815,-36 811,-32 811,0 861,0 865,-4 865,-36"/>
<polyline fill="none" stroke="black" points="861,-32 811,-32 "/>
<polyline fill="none" stroke="black" points="861,-32 861,0 "/>
<polyline fill="none" stroke="black" points="861,-32 865,-36 "/>
<text text-anchor="middle" x="838" y="-16.1" font-family="Times,serif" font-size="8.00">32B</text>
</a>
</g>
</g>
<!-- N6&#45;&gt;NN6_0 -->
<g id="edge4" class="edge">
<title>N6&#45;&gt;NN6_0</title>
<g id="a_edge4"><a xlink:title="4.02kB">
<path fill="none" stroke="black" d="M838,-86.59C838,-74.07 838,-58.96 838,-46.2"/>
<polygon fill="black" stroke="black" points="841.5,-46.15 838,-36.15 834.5,-46.15 841.5,-46.15"/>
</a>
</g>
<g id="a_edge4&#45;label"><a xlink:title="4.02kB">
<text text-anchor="middle" x="865.5" y="-57.8" font-family="Times,serif" font-size="14.00"> 4.02kB</text>
</a>
</g>
</g>
<!-- N7 -->
<g id="node7" class="node">
<title>N7</title>
<g id="a_node7"><a xlink:title="runtime.mcall (4.52kB)">
<polygon fill="#edecec" stroke="#b2b1ac" points="1114,-1042 1018,-1042 1018,-1006 1114,-1006 1114,-1042"/>
<text text-anchor="middle" x="1066" y="-1031.1" font-family="Times,serif" font-size="8.00">runtime</text>
<text text-anchor="middle" x="1066" y="-1022.1" font-family="Times,serif" font-size="8.00">mcall</text>
<text text-anchor="middle" x="1066" y="-1013.1" font-family="Times,serif" font-size="8.00">0 of 4.52kB (0.69%)</text>
</a>
</g>
</g>
<!-- N25 -->
<g id="node25" class="node">
<title>N25</title>
<g id="a_node25"><a xlink:title="runtime.park_m (4.52kB)">
<polygon fill="#edecec" stroke="#b2b1ac" points="1114,-911 1018,-911 1018,-875 1114,-875 1114,-911"/>
<text text-anchor="middle" x="1066" y="-900.1" font-family="Times,serif" font-size="8.00">runtime</text>
<text text-anchor="middle" x="1066" y="-891.1" font-family="Times,serif" font-size="8.00">park_m</text>
<text text-anchor="middle" x="1066" y="-882.1" font-family="Times,serif" font-size="8.00">0 of 4.52kB (0.69%)</text>
</a>
</g>
</g>
<!-- N7&#45;&gt;N25 -->
<g id="edge12" class="edge">
<title>N7&#45;&gt;N25</title>
<g id="a_edge12"><a xlink:title="runtime.mcall &#45;&gt; runtime.park_m (4.52kB)">
<path fill="none" stroke="#b2b1ac" d="M1066,-1005.87C1066,-984.28 1066,-946.91 1066,-921.35"/>
<polygon fill="#b2b1ac" stroke="#b2b1ac" points="1069.5,-921.2 1066,-911.2 1062.5,-921.2 1069.5,-921.2"/>
</a>
</g>
<g id="a_edge12&#45;label"><a xlink:title="runtime.mcall &#45;&gt; runtime.park_m (4.52kB)">
<text text-anchor="middle" x="1093.5" y="-965.3" font-family="Times,serif" font-size="14.00"> 4.52kB</text>
</a>
</g>
</g>
<!-- N8 -->
<g id="node8" class="node">
<title>N8</title>
<g id="a_node8"><a xlink:title="runtime.mstart (4.52kB)">
<polygon fill="#edecec" stroke="#b2b1ac" points="1000,-1173.5 904,-1173.5 904,-1137.5 1000,-1137.5 1000,-1173.5"/>
<text text-anchor="middle" x="952" y="-1162.6" font-family="Times,serif" font-size="8.00">runtime</text>
<text text-anchor="middle" x="952" y="-1153.6" font-family="Times,serif" font-size="8.00">mstart</text>
<text text-anchor="middle" x="952" y="-1144.6" font-family="Times,serif" font-size="8.00">0 of 4.52kB (0.69%)</text>
</a>
</g>
</g>
<!-- N20 -->
<g id="node20" class="node">
<title>N20</title>
<g id="a_node20"><a xlink:title="runtime.mstart0 (4.52kB)">
<polygon fill="#edecec" stroke="#b2b1ac" points="1000,-1042 904,-1042 904,-1006 1000,-1006 1000,-1042"/>
<text text-anchor="middle" x="952" y="-1031.1" font-family="Times,serif" font-size="8.00">runtime</text>
<text text-anchor="middle" x="952" y="-1022.1" font-family="Times,serif" font-size="8.00">mstart0</text>
<text text-anchor="middle" x="952" y="-1013.1" font-family="Times,serif" font-size="8.00">0 of 4.52kB (0.69%)</text>
</a>
</g>
</g>
<!-- N8&#45;&gt;N20 -->
<g id="edge13" class="edge">
<title>N8&#45;&gt;N20</title>
<g id="a_edge13"><a xlink:title="runtime.mstart &#45;&gt; runtime.mstart0 (4.52kB)">
<path fill="none" stroke="#b2b1ac" d="M952,-1137.3C952,-1115.63 952,-1078.12 952,-1052.46"/>
<polygon fill="#b2b1ac" stroke="#b2b1ac" points="955.5,-1052.27 952,-1042.27 948.5,-1052.27 955.5,-1052.27"/>
</a>
</g>
<g id="a_edge13&#45;label"><a xlink:title="runtime.mstart &#45;&gt; runtime.mstart0 (4.52kB)">
<text text-anchor="middle" x="979.5" y="-1067.8" font-family="Times,serif" font-size="14.00"> 4.52kB</text>
</a>
</g>
</g>
<!-- N9 -->
<g id="node9" class="node">
<title>N9</title>
<g id="a_node9"><a xlink:title="runtime.systemstack (4.21kB)">
<polygon fill="#edecec" stroke="#b2b1ac" points="1228,-1173.5 1132,-1173.5 1132,-1137.5 1228,-1137.5 1228,-1173.5"/>
<text text-anchor="middle" x="1180" y="-1162.6" font-family="Times,serif" font-size="8.00">runtime</text>
<text text-anchor="middle" x="1180" y="-1153.6" font-family="Times,serif" font-size="8.00">systemstack</text>
<text text-anchor="middle" x="1180" y="-1144.6" font-family="Times,serif" font-size="8.00">0 of 4.21kB (0.65%)</text>
</a>
</g>
</g>
<!-- N23 -->
<g id="node23" class="node">
<title>N23</title>
<g id="a_node23"><a xlink:title="runtime.newproc.func1 (4.21kB)">
<polygon fill="#edecec" stroke="#b2b1ac" points="1228,-1046 1132,-1046 1132,-1002 1228,-1002 1228,-1046"/>
<text text-anchor="middle" x="1180" y="-1035.6" font-family="Times,serif" font-size="8.00">runtime</text>
<text text-anchor="middle" x="1180" y="-1026.6" font-family="Times,serif" font-size="8.00">newproc</text>
<text text-anchor="middle" x="1180" y="-1017.6" font-family="Times,serif" font-size="8.00">func1</text>
<text text-anchor="middle" x="1180" y="-1008.6" font-family="Times,serif" font-size="8.00">0 of 4.21kB (0.65%)</text>
</a>
</g>
</g>
<!-- N9&#45;&gt;N23 -->
<g id="edge19" class="edge">
<title>N9&#45;&gt;N23</title>
<g id="a_edge19"><a xlink:title="runtime.systemstack &#45;&gt; runtime.newproc.func1 (4.21kB)">
<path fill="none" stroke="#b2b1ac" d="M1180,-1137.3C1180,-1116.71 1180,-1081.83 1180,-1056.39"/>
<polygon fill="#b2b1ac" stroke="#b2b1ac" points="1183.5,-1056.14 1180,-1046.14 1176.5,-1056.14 1183.5,-1056.14"/>
</a>
</g>
<g id="a_edge19&#45;label"><a xlink:title="runtime.systemstack &#45;&gt; runtime.newproc.func1 (4.21kB)">
<text text-anchor="middle" x="1207.5" y="-1067.8" font-family="Times,serif" font-size="14.00"> 4.21kB</text>
</a>
</g>
</g>
<!-- N10 -->
<g id="node10" class="node">
<title>N10</title>
<g id="a_node10"><a xlink:title="github.com/google/pprof/profile.init (4.02kB)">
<polygon fill="#edecec" stroke="#b2b1ac" points="886,-911 790,-911 790,-875 886,-875 886,-911"/>
<text text-anchor="middle" x="838" y="-900.1" font-family="Times,serif" font-size="8.00">profile</text>
<text text-anchor="middle" x="838" y="-891.1" font-family="Times,serif" font-size="8.00">init</text>
<text text-anchor="middle" x="838" y="-882.1" font-family="Times,serif" font-size="8.00">0 of 4.02kB (0.62%)</text>
</a>
</g>
</g>
<!-- N13 -->
<g id="node13" class="node">
<title>N13</title>
<g id="a_node13"><a xlink:title="regexp.MustCompile (4.02kB)">
<polygon fill="#edecec" stroke="#b2b1ac" points="886,-796.5 790,-796.5 790,-760.5 886,-760.5 886,-796.5"/>
<text text-anchor="middle" x="838" y="-785.6" font-family="Times,serif" font-size="8.00">regexp</text>
<text text-anchor="middle" x="838" y="-776.6" font-family="Times,serif" font-size="8.00">MustCompile</text>
<text text-anchor="middle" x="838" y="-767.6" font-family="Times,serif" font-size="8.00">0 of 4.02kB (0.62%)</text>
</a>
</g>
</g>
<!-- N10&#45;&gt;N13 -->
<g id="edge20" class="edge">
<title>N10&#45;&gt;N13</title>
<g id="a_edge20"><a xlink:title="github.com/google/pprof/profile.init &#45;&gt; regexp.MustCompile (4.02kB)">
<path fill="none" stroke="#b2b1ac" d="M838,-874.91C838,-856.82 838,-828.01 838,-806.77"/>
<polygon fill="#b2b1ac" stroke="#b2b1ac" points="841.5,-806.75 838,-796.75 834.5,-806.75 841.5,-806.75"/>
</a>
</g>
<g id="a_edge20&#45;label"><a xlink:title="github.com/google/pprof/profile.init &#45;&gt; regexp.MustCompile (4.02kB)">
<text text-anchor="middle" x="865.5" y="-820.8" font-family="Times,serif" font-size="14.00"> 4.02kB</text>
</a>
</g>
</g>
<!-- N11&#45;&gt;N1 -->
<g id="edge5" class="edge">
<title>N11&#45;&gt;N1</title>
<g id="a_edge5"><a xlink:title="main.main &#45;&gt; main.readbyte (633.23kB)">
<path fill="none" stroke="#b20100" stroke-width="5" d="M648,-1005.87C648,-990.67 648,-967.66 648,-946.45"/>
<polygon fill="#b20100" stroke="#b20100" stroke-width="5" points="652.38,-946.22 648,-936.22 643.63,-946.22 652.38,-946.22"/>
</a>
</g>
<g id="a_edge5&#45;label"><a xlink:title="main.main &#45;&gt; main.readbyte (633.23kB)">
<text text-anchor="middle" x="684.5" y="-972.8" font-family="Times,serif" font-size="14.00"> 633.23kB</text>
<text text-anchor="middle" x="684.5" y="-957.8" font-family="Times,serif" font-size="14.00"> (inline)</text>
</a>
</g>
</g>
<!-- N12 -->
<g id="node12" class="node">
<title>N12</title>
<g id="a_node12"><a xlink:title="regexp.Compile (4.02kB)">
<polygon fill="#edecec" stroke="#b2b1ac" points="886,-692 790,-692 790,-656 886,-656 886,-692"/>
<text text-anchor="middle" x="838" y="-681.1" font-family="Times,serif" font-size="8.00">regexp</text>
<text text-anchor="middle" x="838" y="-672.1" font-family="Times,serif" font-size="8.00">Compile</text>
<text text-anchor="middle" x="838" y="-663.1" font-family="Times,serif" font-size="8.00">0 of 4.02kB (0.62%)</text>
</a>
</g>
</g>
<!-- N14 -->
<g id="node14" class="node">
<title>N14</title>
<g id="a_node14"><a xlink:title="regexp.compile (4.02kB)">
<polygon fill="#edecec" stroke="#b2b1ac" points="886,-605 790,-605 790,-569 886,-569 886,-605"/>
<text text-anchor="middle" x="838" y="-594.1" font-family="Times,serif" font-size="8.00">regexp</text>
<text text-anchor="middle" x="838" y="-585.1" font-family="Times,serif" font-size="8.00">compile</text>
<text text-anchor="middle" x="838" y="-576.1" font-family="Times,serif" font-size="8.00">0 of 4.02kB (0.62%)</text>
</a>
</g>
</g>
<!-- N12&#45;&gt;N14 -->
<g id="edge21" class="edge">
<title>N12&#45;&gt;N14</title>
<g id="a_edge21"><a xlink:title="regexp.Compile &#45;&gt; regexp.compile (4.02kB)">
<path fill="none" stroke="#b2b1ac" d="M838,-655.8C838,-644.16 838,-628.55 838,-615.24"/>
<polygon fill="#b2b1ac" stroke="#b2b1ac" points="841.5,-615.18 838,-605.18 834.5,-615.18 841.5,-615.18"/>
</a>
</g>
<g id="a_edge21&#45;label"><a xlink:title="regexp.Compile &#45;&gt; regexp.compile (4.02kB)">
<text text-anchor="middle" x="865.5" y="-626.8" font-family="Times,serif" font-size="14.00"> 4.02kB</text>
</a>
</g>
</g>
<!-- N13&#45;&gt;N12 -->
<g id="edge22" class="edge">
<title>N13&#45;&gt;N12</title>
<g id="a_edge22"><a xlink:title="regexp.MustCompile &#45;&gt; regexp.Compile (4.02kB)">
<path fill="none" stroke="#b2b1ac" d="M838,-760.11C838,-744.26 838,-720.59 838,-702.23"/>
<polygon fill="#b2b1ac" stroke="#b2b1ac" points="841.5,-702.13 838,-692.13 834.5,-702.13 841.5,-702.13"/>
</a>
</g>
<g id="a_edge22&#45;label"><a xlink:title="regexp.MustCompile &#45;&gt; regexp.Compile (4.02kB)">
<text text-anchor="middle" x="865.5" y="-728.8" font-family="Times,serif" font-size="14.00"> 4.02kB</text>
<text text-anchor="middle" x="865.5" y="-713.8" font-family="Times,serif" font-size="14.00"> (inline)</text>
</a>
</g>
</g>
<!-- N17 -->
<g id="node17" class="node">
<title>N17</title>
<g id="a_node17"><a xlink:title="regexp/syntax.Parse (4.02kB)">
<polygon fill="#edecec" stroke="#b2b1ac" points="886,-503 790,-503 790,-467 886,-467 886,-503"/>
<text text-anchor="middle" x="838" y="-492.1" font-family="Times,serif" font-size="8.00">syntax</text>
<text text-anchor="middle" x="838" y="-483.1" font-family="Times,serif" font-size="8.00">Parse</text>
<text text-anchor="middle" x="838" y="-474.1" font-family="Times,serif" font-size="8.00">0 of 4.02kB (0.62%)</text>
</a>
</g>
</g>
<!-- N14&#45;&gt;N17 -->
<g id="edge23" class="edge">
<title>N14&#45;&gt;N17</title>
<g id="a_edge23"><a xlink:title="regexp.compile &#45;&gt; regexp/syntax.Parse (4.02kB)">
<path fill="none" stroke="#b2b1ac" d="M838,-568.58C838,-553.38 838,-531.07 838,-513.46"/>
<polygon fill="#b2b1ac" stroke="#b2b1ac" points="841.5,-513.22 838,-503.22 834.5,-513.22 841.5,-513.22"/>
</a>
</g>
<g id="a_edge23&#45;label"><a xlink:title="regexp.compile &#45;&gt; regexp/syntax.Parse (4.02kB)">
<text text-anchor="middle" x="865.5" y="-539.8" font-family="Times,serif" font-size="14.00"> 4.02kB</text>
<text text-anchor="middle" x="865.5" y="-524.8" font-family="Times,serif" font-size="14.00"> (inline)</text>
</a>
</g>
</g>
<!-- N15 -->
<g id="node15" class="node">
<title>N15</title>
<g id="a_node15"><a xlink:title="regexp/syntax.(*parser).literal (4.02kB)">
<polygon fill="#edecec" stroke="#b2b1ac" points="886,-329 790,-329 790,-285 886,-285 886,-329"/>
<text text-anchor="middle" x="838" y="-318.6" font-family="Times,serif" font-size="8.00">syntax</text>
<text text-anchor="middle" x="838" y="-309.6" font-family="Times,serif" font-size="8.00">(*parser)</text>
<text text-anchor="middle" x="838" y="-300.6" font-family="Times,serif" font-size="8.00">literal</text>
<text text-anchor="middle" x="838" y="-291.6" font-family="Times,serif" font-size="8.00">0 of 4.02kB (0.62%)</text>
</a>
</g>
</g>
<!-- N16 -->
<g id="node16" class="node">
<title>N16</title>
<g id="a_node16"><a xlink:title="regexp/syntax.(*parser).push (4.02kB)">
<polygon fill="#edecec" stroke="#b2b1ac" points="886,-234 790,-234 790,-190 886,-190 886,-234"/>
<text text-anchor="middle" x="838" y="-223.6" font-family="Times,serif" font-size="8.00">syntax</text>
<text text-anchor="middle" x="838" y="-214.6" font-family="Times,serif" font-size="8.00">(*parser)</text>
<text text-anchor="middle" x="838" y="-205.6" font-family="Times,serif" font-size="8.00">push</text>
<text text-anchor="middle" x="838" y="-196.6" font-family="Times,serif" font-size="8.00">0 of 4.02kB (0.62%)</text>
</a>
</g>
</g>
<!-- N15&#45;&gt;N16 -->
<g id="edge24" class="edge">
<title>N15&#45;&gt;N16</title>
<g id="a_edge24"><a xlink:title="regexp/syntax.(*parser).literal &#45;&gt; regexp/syntax.(*parser).push (4.02kB)">
<path fill="none" stroke="#b2b1ac" d="M838,-284.9C838,-272.89 838,-257.62 838,-244.24"/>
<polygon fill="#b2b1ac" stroke="#b2b1ac" points="841.5,-244.02 838,-234.02 834.5,-244.02 841.5,-244.02"/>
</a>
</g>
<g id="a_edge24&#45;label"><a xlink:title="regexp/syntax.(*parser).literal &#45;&gt; regexp/syntax.(*parser).push (4.02kB)">
<text text-anchor="middle" x="865.5" y="-255.8" font-family="Times,serif" font-size="14.00"> 4.02kB</text>
</a>
</g>
</g>
<!-- N16&#45;&gt;N6 -->
<g id="edge25" class="edge">
<title>N16&#45;&gt;N6</title>
<g id="a_edge25"><a xlink:title="regexp/syntax.(*parser).push &#45;&gt; regexp/syntax.(*parser).maybeConcat (4.02kB)">
<path fill="none" stroke="#b2b1ac" d="M838,-189.95C838,-178.05 838,-162.87 838,-149.2"/>
<polygon fill="#b2b1ac" stroke="#b2b1ac" points="841.5,-149.13 838,-139.13 834.5,-149.13 841.5,-149.13"/>
</a>
</g>
<g id="a_edge25&#45;label"><a xlink:title="regexp/syntax.(*parser).push &#45;&gt; regexp/syntax.(*parser).maybeConcat (4.02kB)">
<text text-anchor="middle" x="865.5" y="-160.8" font-family="Times,serif" font-size="14.00"> 4.02kB</text>
</a>
</g>
</g>
<!-- N18 -->
<g id="node18" class="node">
<title>N18</title>
<g id="a_node18"><a xlink:title="regexp/syntax.parse (4.02kB)">
<polygon fill="#edecec" stroke="#b2b1ac" points="886,-416 790,-416 790,-380 886,-380 886,-416"/>
<text text-anchor="middle" x="838" y="-405.1" font-family="Times,serif" font-size="8.00">syntax</text>
<text text-anchor="middle" x="838" y="-396.1" font-family="Times,serif" font-size="8.00">parse</text>
<text text-anchor="middle" x="838" y="-387.1" font-family="Times,serif" font-size="8.00">0 of 4.02kB (0.62%)</text>
</a>
</g>
</g>
<!-- N17&#45;&gt;N18 -->
<g id="edge26" class="edge">
<title>N17&#45;&gt;N18</title>
<g id="a_edge26"><a xlink:title="regexp/syntax.Parse &#45;&gt; regexp/syntax.parse (4.02kB)">
<path fill="none" stroke="#b2b1ac" d="M838,-466.8C838,-455.16 838,-439.55 838,-426.24"/>
<polygon fill="#b2b1ac" stroke="#b2b1ac" points="841.5,-426.18 838,-416.18 834.5,-426.18 841.5,-426.18"/>
</a>
</g>
<g id="a_edge26&#45;label"><a xlink:title="regexp/syntax.Parse &#45;&gt; regexp/syntax.parse (4.02kB)">
<text text-anchor="middle" x="865.5" y="-437.8" font-family="Times,serif" font-size="14.00"> 4.02kB</text>
</a>
</g>
</g>
<!-- N18&#45;&gt;N15 -->
<g id="edge27" class="edge">
<title>N18&#45;&gt;N15</title>
<g id="a_edge27"><a xlink:title="regexp/syntax.parse &#45;&gt; regexp/syntax.(*parser).literal (4.02kB)">
<path fill="none" stroke="#b2b1ac" d="M838,-379.84C838,-368.44 838,-353.13 838,-339.58"/>
<polygon fill="#b2b1ac" stroke="#b2b1ac" points="841.5,-339.19 838,-329.19 834.5,-339.19 841.5,-339.19"/>
</a>
</g>
<g id="a_edge27&#45;label"><a xlink:title="regexp/syntax.parse &#45;&gt; regexp/syntax.(*parser).literal (4.02kB)">
<text text-anchor="middle" x="865.5" y="-350.8" font-family="Times,serif" font-size="14.00"> 4.02kB</text>
</a>
</g>
</g>
<!-- N19&#45;&gt;N10 -->
<g id="edge28" class="edge">
<title>N19&#45;&gt;N10</title>
<g id="a_edge28"><a xlink:title="runtime.doInit &#45;&gt; github.com/google/pprof/profile.init (4.02kB)">
<path fill="none" stroke="#b2b1ac" d="M795.51,-1005.87C803.78,-984.09 818.16,-946.24 827.87,-920.67"/>
<polygon fill="#b2b1ac" stroke="#b2b1ac" points="831.19,-921.79 831.47,-911.2 824.64,-919.31 831.19,-921.79"/>
</a>
</g>
<g id="a_edge28&#45;label"><a xlink:title="runtime.doInit &#45;&gt; github.com/google/pprof/profile.init (4.02kB)">
<text text-anchor="middle" x="842.5" y="-965.3" font-family="Times,serif" font-size="14.00"> 4.02kB</text>
</a>
</g>
</g>
<!-- N21 -->
<g id="node21" class="node">
<title>N21</title>
<g id="a_node21"><a xlink:title="runtime.mstart1 (4.52kB)">
<polygon fill="#edecec" stroke="#b2b1ac" points="1000,-911 904,-911 904,-875 1000,-875 1000,-911"/>
<text text-anchor="middle" x="952" y="-900.1" font-family="Times,serif" font-size="8.00">runtime</text>
<text text-anchor="middle" x="952" y="-891.1" font-family="Times,serif" font-size="8.00">mstart1</text>
<text text-anchor="middle" x="952" y="-882.1" font-family="Times,serif" font-size="8.00">0 of 4.52kB (0.69%)</text>
</a>
</g>
</g>
<!-- N20&#45;&gt;N21 -->
<g id="edge14" class="edge">
<title>N20&#45;&gt;N21</title>
<g id="a_edge14"><a xlink:title="runtime.mstart0 &#45;&gt; runtime.mstart1 (4.52kB)">
<path fill="none" stroke="#b2b1ac" d="M952,-1005.87C952,-984.28 952,-946.91 952,-921.35"/>
<polygon fill="#b2b1ac" stroke="#b2b1ac" points="955.5,-921.2 952,-911.2 948.5,-921.2 955.5,-921.2"/>
</a>
</g>
<g id="a_edge14&#45;label"><a xlink:title="runtime.mstart0 &#45;&gt; runtime.mstart1 (4.52kB)">
<text text-anchor="middle" x="979.5" y="-965.3" font-family="Times,serif" font-size="14.00"> 4.52kB</text>
</a>
</g>
</g>
<!-- N21&#45;&gt;N4 -->
<g id="edge15" class="edge">
<title>N21&#45;&gt;N4</title>
<g id="a_edge15"><a xlink:title="runtime.mstart1 &#45;&gt; runtime.schedule (4.52kB)">
<path fill="none" stroke="#b2b1ac" d="M954.49,-874.77C957.42,-858.77 963.44,-834.82 975,-817 978.1,-812.22 981.98,-807.7 986.13,-803.56"/>
<polygon fill="#b2b1ac" stroke="#b2b1ac" points="988.77,-805.88 993.78,-796.54 984.04,-800.72 988.77,-805.88"/>
</a>
</g>
<g id="a_edge15&#45;label"><a xlink:title="runtime.mstart1 &#45;&gt; runtime.schedule (4.52kB)">
<text text-anchor="middle" x="1002.5" y="-820.8" font-family="Times,serif" font-size="14.00"> 4.52kB</text>
</a>
</g>
</g>
<!-- N22 -->
<g id="node22" class="node">
<title>N22</title>
<g id="a_node22"><a xlink:title="runtime.newm (9.04kB)">
<polygon fill="#edeceb" stroke="#b2afa6" points="1066,-416 970,-416 970,-380 1066,-380 1066,-416"/>
<text text-anchor="middle" x="1018" y="-405.1" font-family="Times,serif" font-size="8.00">runtime</text>
<text text-anchor="middle" x="1018" y="-396.1" font-family="Times,serif" font-size="8.00">newm</text>
<text text-anchor="middle" x="1018" y="-387.1" font-family="Times,serif" font-size="8.00">0 of 9.04kB (1.39%)</text>
</a>
</g>
</g>
<!-- N22&#45;&gt;N3 -->
<g id="edge7" class="edge">
<title>N22&#45;&gt;N3</title>
<g id="a_edge7"><a xlink:title="runtime.newm &#45;&gt; runtime.allocm (9.04kB)">
<path fill="none" stroke="#b2afa6" d="M1018,-379.84C1018,-367.93 1018,-351.74 1018,-337.75"/>
<polygon fill="#b2afa6" stroke="#b2afa6" points="1021.5,-337.59 1018,-327.59 1014.5,-337.59 1021.5,-337.59"/>
</a>
</g>
<g id="a_edge7&#45;label"><a xlink:title="runtime.newm &#45;&gt; runtime.allocm (9.04kB)">
<text text-anchor="middle" x="1045.5" y="-350.8" font-family="Times,serif" font-size="14.00"> 9.04kB</text>
</a>
</g>
</g>
<!-- N24 -->
<g id="node24" class="node">
<title>N24</title>
<g id="a_node24"><a xlink:title="runtime.newproc1 (4.21kB)">
<polygon fill="#edecec" stroke="#b2b1ac" points="1228,-911 1132,-911 1132,-875 1228,-875 1228,-911"/>
<text text-anchor="middle" x="1180" y="-900.1" font-family="Times,serif" font-size="8.00">runtime</text>
<text text-anchor="middle" x="1180" y="-891.1" font-family="Times,serif" font-size="8.00">newproc1</text>
<text text-anchor="middle" x="1180" y="-882.1" font-family="Times,serif" font-size="8.00">0 of 4.21kB (0.65%)</text>
</a>
</g>
</g>
<!-- N23&#45;&gt;N24 -->
<g id="edge17" class="edge">
<title>N23&#45;&gt;N24</title>
<g id="a_edge17"><a xlink:title="runtime.newproc.func1 &#45;&gt; runtime.newproc1 (4.21kB)">
<path fill="none" stroke="#b2b1ac" d="M1180,-1001.99C1180,-980.07 1180,-945.61 1180,-921.53"/>
<polygon fill="#b2b1ac" stroke="#b2b1ac" points="1183.5,-921.28 1180,-911.28 1176.5,-921.28 1183.5,-921.28"/>
</a>
</g>
<g id="a_edge17&#45;label"><a xlink:title="runtime.newproc.func1 &#45;&gt; runtime.newproc1 (4.21kB)">
<text text-anchor="middle" x="1207.5" y="-965.3" font-family="Times,serif" font-size="14.00"> 4.21kB</text>
</a>
</g>
</g>
<!-- N24&#45;&gt;N5 -->
<g id="edge18" class="edge">
<title>N24&#45;&gt;N5</title>
<g id="a_edge18"><a xlink:title="runtime.newproc1 &#45;&gt; runtime.malg (4.21kB)">
<path fill="none" stroke="#b2b1ac" d="M1180,-874.91C1180,-857.46 1180,-830.01 1180,-809.02"/>
<polygon fill="#b2b1ac" stroke="#b2b1ac" points="1183.5,-809.02 1180,-799.02 1176.5,-809.02 1183.5,-809.02"/>
</a>
</g>
<g id="a_edge18&#45;label"><a xlink:title="runtime.newproc1 &#45;&gt; runtime.malg (4.21kB)">
<text text-anchor="middle" x="1207.5" y="-820.8" font-family="Times,serif" font-size="14.00"> 4.21kB</text>
</a>
</g>
</g>
<!-- N25&#45;&gt;N4 -->
<g id="edge16" class="edge">
<title>N25&#45;&gt;N4</title>
<g id="a_edge16"><a xlink:title="runtime.park_m &#45;&gt; runtime.schedule (4.52kB)">
<path fill="none" stroke="#b2b1ac" d="M1058.71,-874.91C1050.92,-856.66 1038.47,-827.48 1029.39,-806.19"/>
<polygon fill="#b2b1ac" stroke="#b2b1ac" points="1032.5,-804.57 1025.36,-796.75 1026.06,-807.32 1032.5,-804.57"/>
</a>
</g>
<g id="a_edge16&#45;label"><a xlink:title="runtime.park_m &#45;&gt; runtime.schedule (4.52kB)">
<text text-anchor="middle" x="1066.5" y="-820.8" font-family="Times,serif" font-size="14.00"> 4.52kB</text>
</a>
</g>
</g>
<!-- N28 -->
<g id="node28" class="node">
<title>N28</title>
<g id="a_node28"><a xlink:title="runtime.wakep (9.04kB)">
<polygon fill="#edeceb" stroke="#b2afa6" points="1066,-605 970,-605 970,-569 1066,-569 1066,-605"/>
<text text-anchor="middle" x="1018" y="-594.1" font-family="Times,serif" font-size="8.00">runtime</text>
<text text-anchor="middle" x="1018" y="-585.1" font-family="Times,serif" font-size="8.00">wakep</text>
<text text-anchor="middle" x="1018" y="-576.1" font-family="Times,serif" font-size="8.00">0 of 9.04kB (1.39%)</text>
</a>
</g>
</g>
<!-- N26&#45;&gt;N28 -->
<g id="edge8" class="edge">
<title>N26&#45;&gt;N28</title>
<g id="a_edge8"><a xlink:title="runtime.resetspinning &#45;&gt; runtime.wakep (9.04kB)">
<path fill="none" stroke="#b2afa6" d="M1018,-655.8C1018,-644.16 1018,-628.55 1018,-615.24"/>
<polygon fill="#b2afa6" stroke="#b2afa6" points="1021.5,-615.18 1018,-605.18 1014.5,-615.18 1021.5,-615.18"/>
</a>
</g>
<g id="a_edge8&#45;label"><a xlink:title="runtime.resetspinning &#45;&gt; runtime.wakep (9.04kB)">
<text text-anchor="middle" x="1045.5" y="-626.8" font-family="Times,serif" font-size="14.00"> 9.04kB</text>
</a>
</g>
</g>
<!-- N27 -->
<g id="node27" class="node">
<title>N27</title>
<g id="a_node27"><a xlink:title="runtime.startm (9.04kB)">
<polygon fill="#edeceb" stroke="#b2afa6" points="1066,-503 970,-503 970,-467 1066,-467 1066,-503"/>
<text text-anchor="middle" x="1018" y="-492.1" font-family="Times,serif" font-size="8.00">runtime</text>
<text text-anchor="middle" x="1018" y="-483.1" font-family="Times,serif" font-size="8.00">startm</text>
<text text-anchor="middle" x="1018" y="-474.1" font-family="Times,serif" font-size="8.00">0 of 9.04kB (1.39%)</text>
</a>
</g>
</g>
<!-- N27&#45;&gt;N22 -->
<g id="edge10" class="edge">
<title>N27&#45;&gt;N22</title>
<g id="a_edge10"><a xlink:title="runtime.startm &#45;&gt; runtime.newm (9.04kB)">
<path fill="none" stroke="#b2afa6" d="M1018,-466.8C1018,-455.16 1018,-439.55 1018,-426.24"/>
<polygon fill="#b2afa6" stroke="#b2afa6" points="1021.5,-426.18 1018,-416.18 1014.5,-426.18 1021.5,-426.18"/>
</a>
</g>
<g id="a_edge10&#45;label"><a xlink:title="runtime.startm &#45;&gt; runtime.newm (9.04kB)">
<text text-anchor="middle" x="1045.5" y="-437.8" font-family="Times,serif" font-size="14.00"> 9.04kB</text>
</a>
</g>
</g>
<!-- N28&#45;&gt;N27 -->
<g id="edge11" class="edge">
<title>N28&#45;&gt;N27</title>
<g id="a_edge11"><a xlink:title="runtime.wakep &#45;&gt; runtime.startm (9.04kB)">
<path fill="none" stroke="#b2afa6" d="M1018,-568.58C1018,-553.38 1018,-531.07 1018,-513.46"/>
<polygon fill="#b2afa6" stroke="#b2afa6" points="1021.5,-513.22 1018,-503.22 1014.5,-513.22 1021.5,-513.22"/>
</a>
</g>
<g id="a_edge11&#45;label"><a xlink:title="runtime.wakep &#45;&gt; runtime.startm (9.04kB)">
<text text-anchor="middle" x="1045.5" y="-532.3" font-family="Times,serif" font-size="14.00"> 9.04kB</text>
</a>
</g>
</g>
</g>
</g></svg>
